<?xml version="1.0" encoding="UTF-8"?>
<!DOCTYPE svg PUBLIC "-//W3C//DTD SVG 1.1//EN" "http://www.w3.org/Graphics/SVG/1.1/DTD/svg11.dtd">
<!-- Creator: CorelDRAW -->
<svg xmlns="http://www.w3.org/2000/svg" xml:space="preserve" width="210mm" height="297mm" style="shape-rendering:geometricPrecision; text-rendering:geometricPrecision; image-rendering:optimizeQuality; fill-rule:evenodd; clip-rule:evenodd"
viewBox="0 0 210 297"
 xmlns:xlink="http://www.w3.org/1999/xlink">
 <defs>
  <style type="text/css">
   <![CDATA[
    .str0 {stroke:#0033FF;stroke-width:0.0762}
    .str1 {stroke:#2B4FC3;stroke-width:0.2;stroke-linecap:round;stroke-linejoin:round}
    .fil3 {fill:none;fill-rule:nonzero}
    .fil4 {fill:#2A4FC3}
    .fil0 {fill:#FEFEFE}
    .fil2 {fill:#0033FF;fill-rule:nonzero}
    .fil1 {fill:#2A4FC3;fill-rule:nonzero}
   ]]>
  </style>
 </defs>
 <g id="图层_x0020_1">
  <metadata id="CorelCorpID_0Corel-Layer"/>
  <g>
   <path class="fil0" d="M1.5564 0.1592l9.1448 -0.0245 0.0262 9.8238 -10.7406 -0.0245 0.0786 -8.4966c0,0 0.031,-0.5243 0.3851,-0.8848 0.3541,-0.3606 1.0313,-0.4399 1.1059,-0.3934z"/>
   <path id="1" class="fil1" d="M10.8008 0.1347l-0.0996 0.0932 -9.1448 0.0245 0 -0.1864 9.1448 -0.0245 0.0996 0.0932zm-0.0996 0.0932l0 -0.1864 0.0051 0.0001 0.0051 0.0004 0.005 0.0006 0.0049 0.0008 0.0048 0.001 0.0047 0.0013 0.0046 0.0015 0.0046 0.0016 0.0044 0.0019 0.0043 0.0021 0.0041 0.0022 0.0041 0.0024 0.0039 0.0026 0.0038 0.0028 0.0036 0.0029 0.0034 0.0031 0.0033 0.0033 0.0032 0.0033 0.0029 0.0036 0.0028 0.0036 0.0026 0.0038 0.0024 0.0039 0.0022 0.004 0.002 0.0042 0.0018 0.0042 0.0015 0.0043 0.0014 0.0044 0.0011 0.0045 0.0009 0.0046 0.0006 0.0047 0.0004 0.0047 0.0001 0.0048 -0.0001 0.0048 -0.0004 0.0047 -0.0006 0.0047 -0.0009 0.0046 -0.0011 0.0045 -0.0014 0.0044 -0.0015 0.0043 -0.0018 0.0042 -0.002 0.0042 -0.0022 0.004 -0.0024 0.0039 -0.0026 0.0038 -0.0028 0.0036 -0.0029 0.0036 -0.0032 0.0033 -0.0033 0.0033 -0.0034 0.0031 -0.0036 0.0029 -0.0038 0.0028 -0.0039 0.0026 -0.0041 0.0024 -0.0041 0.0022 -0.0043 0.0021 -0.0044 0.0019 -0.0046 0.0016 -0.0046 0.0015 -0.0047 0.0013 -0.0048 0.001 -0.0049 0.0008 -0.005 0.0006 -0.0051 0.0004 -0.0051 0.0001zm0.0262 9.8238l-0.0996 -0.0932 -0.0262 -9.8238 0.1992 0 0.0262 9.8238 -0.0996 0.0932zm-0.0996 -0.0932l0.1992 0 -0.0001 0.0048 -0.0004 0.0047 -0.0006 0.0047 -0.0009 0.0046 -0.0011 0.0045 -0.0014 0.0044 -0.0015 0.0043 -0.0018 0.0042 -0.002 0.0042 -0.0022 0.004 -0.0024 0.0039 -0.0026 0.0038 -0.0028 0.0036 -0.0029 0.0036 -0.0032 0.0033 -0.0033 0.0033 -0.0034 0.0031 -0.0036 0.0029 -0.0038 0.0028 -0.0039 0.0026 -0.0041 0.0024 -0.0041 0.0022 -0.0043 0.0021 -0.0044 0.0019 -0.0046 0.0016 -0.0046 0.0015 -0.0047 0.0013 -0.0048 0.001 -0.0049 0.0008 -0.005 0.0006 -0.0051 0.0004 -0.0051 0.0001 -0.0051 -0.0001 -0.0051 -0.0004 -0.005 -0.0006 -0.0049 -0.0008 -0.0048 -0.001 -0.0047 -0.0013 -0.0046 -0.0015 -0.0046 -0.0016 -0.0044 -0.0019 -0.0043 -0.0021 -0.0041 -0.0022 -0.0041 -0.0024 -0.0039 -0.0026 -0.0038 -0.0028 -0.0036 -0.0029 -0.0034 -0.0031 -0.0033 -0.0033 -0.0032 -0.0033 -0.0029 -0.0036 -0.0028 -0.0036 -0.0026 -0.0038 -0.0024 -0.0039 -0.0022 -0.004 -0.002 -0.0042 -0.0018 -0.0042 -0.0015 -0.0043 -0.0014 -0.0044 -0.0011 -0.0045 -0.0009 -0.0046 -0.0006 -0.0047 -0.0004 -0.0047 -0.0001 -0.0048zm-10.7406 -0.0252l0.0996 -0.0925 10.7406 0.0245 0 0.1864 -10.7406 -0.0245 -0.0996 -0.0939zm0.0996 -0.0925l0 0.1864 -0.0051 -0.0001 -0.0051 -0.0004 -0.005 -0.0006 -0.0049 -0.0008 -0.0048 -0.001 -0.0047 -0.0013 -0.0046 -0.0015 -0.0046 -0.0016 -0.0044 -0.0019 -0.0043 -0.0021 -0.0041 -0.0022 -0.0041 -0.0024 -0.0039 -0.0026 -0.0038 -0.0028 -0.0036 -0.0029 -0.0034 -0.0031 -0.0033 -0.0033 -0.0032 -0.0033 -0.0029 -0.0036 -0.0028 -0.0036 -0.0026 -0.0038 -0.0024 -0.0039 -0.0022 -0.004 -0.002 -0.0042 -0.0018 -0.0042 -0.0015 -0.0043 -0.0014 -0.0044 -0.0011 -0.0045 -0.0009 -0.0046 -0.0006 -0.0047 -0.0004 -0.0047 -0.0001 -0.0048 0.0001 -0.0048 0.0004 -0.0047 0.0006 -0.0047 0.0009 -0.0046 0.0011 -0.0045 0.0014 -0.0044 0.0015 -0.0043 0.0018 -0.0042 0.002 -0.0042 0.0022 -0.004 0.0024 -0.0039 0.0026 -0.0038 0.0028 -0.0036 0.0029 -0.0036 0.0032 -0.0033 0.0033 -0.0033 0.0034 -0.0031 0.0036 -0.0029 0.0038 -0.0028 0.0039 -0.0026 0.0041 -0.0024 0.0041 -0.0022 0.0043 -0.0021 0.0044 -0.0019 0.0046 -0.0016 0.0046 -0.0015 0.0047 -0.0013 0.0048 -0.001 0.0049 -0.0008 0.005 -0.0006 0.0051 -0.0004 0.0051 -0.0001zm-0.021 -8.4085l0.1992 0.0058 -0.0786 8.4966 -0.1992 -0.0014 0.0786 -8.4966 0 -0.0044zm0.1992 0.0058l-0.1992 -0.0014 0.0002 -0.0048 0.0004 -0.0047 0.0007 -0.0047 0.0009 -0.0045 0.0011 -0.0045 0.0014 -0.0044 0.0016 -0.0044 0.0018 -0.0042 0.0021 -0.0041 0.0022 -0.004 0.0024 -0.0039 0.0026 -0.0037 0.0028 -0.0037 0.003 -0.0035 0.0032 -0.0033 0.0033 -0.0032 0.0035 -0.0031 0.0037 -0.0029 0.0037 -0.0027 0.004 -0.0026 0.004 -0.0024 0.0042 -0.0022 0.0043 -0.0021 0.0045 -0.0018 0.0045 -0.0016 0.0046 -0.0015 0.0048 -0.0012 0.0048 -0.001 0.0049 -0.0008 0.005 -0.0006 0.0051 -0.0003 0.0051 -0.0001 0.0051 0.0001 0.0051 0.0004 0.005 0.0007 0.0049 0.0008 0.0048 0.0011 0.0047 0.0013 0.0046 0.0015 0.0045 0.0017 0.0044 0.0019 0.0043 0.0021 0.0041 0.0022 0.004 0.0025 0.0039 0.0026 0.0038 0.0028 0.0035 0.003 0.0035 0.0031 0.0032 0.0033 0.0031 0.0034 0.003 0.0035 0.0027 0.0037 0.0026 0.0038 0.0023 0.0039 0.0022 0.004 0.002 0.0042 0.0017 0.0042 0.0015 0.0044 0.0013 0.0044 0.0011 0.0045 0.0009 0.0046 0.0006 0.0047 0.0003 0.0047 0.0001 0.0048zm0.2121 -0.9488l0.1468 0.1266 0 0 -0.0295 0.0313 -0.0281 0.0321 -0.0262 0.0329 -0.0246 0.0335 -0.0236 0.0343 -0.0217 0.0345 -0.0209 0.0349 -0.0189 0.0348 -0.0179 0.0349 -0.0164 0.0351 -0.0155 0.0347 -0.0142 0.0346 -0.0126 0.0337 -0.0121 0.0335 -0.0106 0.0327 -0.0098 0.0317 -0.0089 0.0306 -0.0074 0.0299 -0.0074 0.0284 -0.006 0.0268 -0.0053 0.0259 -0.0045 0.0238 -0.0041 0.0221 -0.0031 0.0207 -0.0029 0.0181 -0.0019 0.0162 -0.0018 0.0139 -0.0014 0.0115 -0.0005 0.0091 -0.0007 0.0066 -0.0003 0.0027 -0.0001 0.0011 -0.1992 -0.0102 0.0001 -0.0019 0.0003 -0.0063 0.0007 -0.008 0.0013 -0.0107 0.0014 -0.0137 0.0018 -0.0161 0.0027 -0.0184 0.0029 -0.0209 0.0039 -0.0223 0.0041 -0.0249 0.0053 -0.0268 0.0059 -0.0281 0.0068 -0.0304 0.0074 -0.0314 0.009 -0.0327 0.0097 -0.0344 0.0106 -0.0353 0.0122 -0.0363 0.0129 -0.0371 0.0148 -0.0381 0.0158 -0.0384 0.0171 -0.0391 0.0188 -0.0395 0.0201 -0.0399 0.0221 -0.04 0.0233 -0.0399 0.0255 -0.0397 0.0268 -0.0395 0.0292 -0.0393 0.031 -0.0387 0.0327 -0.0379 0.0351 -0.0373 0 0zm1.1793 -0.4233l0 0.1864 -0.0551 -0.0153 0.012 0.0059 0.0012 0.0004 -0.0067 -0.0013 -0.012 -0.0009 -0.0162 -0.0008 -0.0203 0.0001 -0.0232 0.0011 -0.0256 0.0019 -0.0281 0.0027 -0.0305 0.0035 -0.0324 0.0046 -0.034 0.0057 -0.036 0.0066 -0.0368 0.0078 -0.0381 0.0087 -0.0393 0.0101 -0.0399 0.0109 -0.0405 0.0122 -0.0409 0.0135 -0.0413 0.0146 -0.041 0.0156 -0.0414 0.017 -0.0408 0.0183 -0.0404 0.0195 -0.0395 0.0207 -0.0388 0.0219 -0.038 0.0234 -0.0368 0.0245 -0.0353 0.0256 -0.0338 0.0271 -0.0324 0.0281 -0.0306 0.0298 -0.1468 -0.1266 0.0376 -0.0362 0.0394 -0.0347 0.0408 -0.0323 0.0423 -0.0308 0.0432 -0.0289 0.0442 -0.027 0.045 -0.0255 0.0457 -0.0237 0.046 -0.0223 0.0462 -0.0205 0.046 -0.0192 0.0466 -0.0178 0.0459 -0.0162 0.0457 -0.0149 0.0451 -0.0136 0.0445 -0.0125 0.0433 -0.0107 0.0427 -0.0101 0.0416 -0.0086 0.0398 -0.0074 0.0388 -0.0063 0.037 -0.0054 0.0353 -0.0043 0.0335 -0.0033 0.0318 -0.0019 0.0296 -0.0011 0.0273 -0.0001 0.0262 0.0008 0.0246 0.0023 0.0239 0.0035 0.0254 0.0068 0.0294 0.0139 -0.0551 -0.0153zm-0.0551 0.1711l0.1102 -0.1558 0.0042 0.0027 0.004 0.003 0.0038 0.003 0.0036 0.0033 0.0034 0.0033 0.0032 0.0035 0.003 0.0036 0.0028 0.0038 0.0026 0.0038 0.0024 0.004 0.0021 0.004 0.002 0.0041 0.0017 0.0042 0.0015 0.0043 0.0013 0.0043 0.0011 0.0044 0.0008 0.0044 0.0006 0.0044 0.0004 0.0045 0.0002 0.0045 -0.0001 0.0045 -0.0003 0.0045 -0.0005 0.0045 -0.0008 0.0045 -0.001 0.0045 -0.0013 0.0044 -0.0015 0.0044 -0.0017 0.0044 -0.002 0.0042 -0.0022 0.0043 -0.0025 0.0041 -0.0027 0.0041 -0.0029 0.0039 -0.0032 0.0038 -0.0032 0.0036 -0.0035 0.0033 -0.0036 0.0032 -0.0037 0.003 -0.0039 0.0028 -0.004 0.0026 -0.0041 0.0025 -0.0042 0.0022 -0.0043 0.002 -0.0044 0.0018 -0.0045 0.0016 -0.0046 0.0014 -0.0046 0.0012 -0.0046 0.001 -0.0048 0.0008 -0.0047 0.0006 -0.0048 0.0003 -0.0048 0.0002 -0.0048 -0.0001 -0.0048 -0.0003 -0.0048 -0.0005 -0.0048 -0.0007 -0.0048 -0.0009 -0.0047 -0.0012 -0.0047 -0.0014 -0.0046 -0.0016 -0.0046 -0.0019 -0.0045 -0.002 -0.0045 -0.0024 -0.0043 -0.0025z"/>
  </g>
  <path class="fil2" d="M4.6 1.8692c0.2646,-0.4795 0.4382,-0.8594 0.5218,-1.1409l0.5704 0.2476c-0.1323,0.1662 -0.3143,0.4636 -0.5461,0.8933l1.7368 0c0.363,0 0.7186,-0.0085 1.0657,-0.0244l0 0.471c-0.2307,-0.017 -0.471,-0.0244 -0.7186,-0.0244l-2.2574 0c-0.2318,0.363 -0.5461,0.8181 -0.943,1.3642l1.4637 0c0,-0.3312 -0.0085,-0.6456 -0.0244,-0.9429l0.5705 0c-0.017,0.182 -0.0254,0.4963 -0.0254,0.9429l0.9673 0c0.2815,0 0.5789,-0.0084 0.8932,-0.0254l0 0.4466c-0.2646,-0.0158 -0.5535,-0.0243 -0.8678,-0.0243l-0.9927 0 0 1.8108c0,0.2646 -0.0985,0.4339 -0.2974,0.508 -0.1979,0.0741 -0.4551,0.1365 -0.7684,0.1863 -0.0497,-0.2149 -0.1407,-0.4054 -0.273,-0.5705 0.363,0 0.5905,-0.0169 0.6815,-0.0497 0.0911,-0.0328 0.1366,-0.1492 0.1366,-0.3471l0 -1.5378 -1.0912 0c-0.3969,0 -0.7281,0.0243 -0.9927,0.0741 -0.0487,-0.1651 -0.1154,-0.3302 -0.1979,-0.4964 0.182,-0.0656 0.3641,-0.2106 0.5461,-0.4339 0.181,-0.2233 0.3884,-0.5249 0.6191,-0.9049l-0.6942 0c-0.2805,0 -0.4964,0.0074 -0.6446,0.0244l0 -0.471c0.1323,0.0159 0.3228,0.0244 0.5705,0.0244l0.9916 0zm-0.5207 3.647c-0.2804,0.2804 -0.5535,0.562 -0.8181,0.8424 -0.0994,-0.1323 -0.2317,-0.2561 -0.3968,-0.3715 0.6445,-0.5619 1.0911,-1.0583 1.3388,-1.488 0.1164,0.1323 0.2815,0.2646 0.4963,0.3969l-0.6202 0.6202zm2.8776 -0.9684c0.1651,0.1492 0.38,0.3482 0.6446,0.5958 0.2645,0.2477 0.4963,0.4795 0.6953,0.6943 -0.0667,0.0498 -0.2159,0.1821 -0.4466,0.3969 -0.2487,-0.3143 -0.67,-0.7525 -1.2658,-1.3145 0.182,-0.1492 0.3059,-0.273 0.3725,-0.3725z"/>
  <path id="1" class="fil3 str0" d="M4.6 1.8692c0.2646,-0.4795 0.4382,-0.8594 0.5218,-1.1409l0.5704 0.2476c-0.1323,0.1662 -0.3143,0.4636 -0.5461,0.8933l1.7368 0c0.363,0 0.7186,-0.0085 1.0657,-0.0244l0 0.471c-0.2307,-0.017 -0.471,-0.0244 -0.7186,-0.0244l-2.2574 0c-0.2318,0.363 -0.5461,0.8181 -0.943,1.3642l1.4637 0c0,-0.3312 -0.0085,-0.6456 -0.0244,-0.9429l0.5705 0c-0.017,0.182 -0.0254,0.4963 -0.0254,0.9429l0.9673 0c0.2815,0 0.5789,-0.0084 0.8932,-0.0254l0 0.4466c-0.2646,-0.0158 -0.5535,-0.0243 -0.8678,-0.0243l-0.9927 0 0 1.8108c0,0.2646 -0.0985,0.4339 -0.2974,0.508 -0.1979,0.0741 -0.4551,0.1365 -0.7684,0.1863 -0.0497,-0.2149 -0.1407,-0.4054 -0.273,-0.5705 0.363,0 0.5905,-0.0169 0.6815,-0.0497 0.0911,-0.0328 0.1366,-0.1492 0.1366,-0.3471l0 -1.5378 -1.0912 0c-0.3969,0 -0.7281,0.0243 -0.9927,0.0741 -0.0487,-0.1651 -0.1154,-0.3302 -0.1979,-0.4964 0.182,-0.0656 0.3641,-0.2106 0.5461,-0.4339 0.181,-0.2233 0.3884,-0.5249 0.6191,-0.9049l-0.6942 0c-0.2805,0 -0.4964,0.0074 -0.6446,0.0244l0 -0.471c0.1323,0.0159 0.3228,0.0244 0.5705,0.0244l0.9916 0zm-0.5207 3.647c-0.2804,0.2804 -0.5535,0.562 -0.8181,0.8424 -0.0994,-0.1323 -0.2317,-0.2561 -0.3968,-0.3715 0.6445,-0.5619 1.0911,-1.0583 1.3388,-1.488 0.1164,0.1323 0.2815,0.2646 0.4963,0.3969l-0.6202 0.6202zm2.8776 -0.9684c0.1651,0.1492 0.38,0.3482 0.6446,0.5958 0.2645,0.2477 0.4963,0.4795 0.6953,0.6943 -0.0667,0.0498 -0.2159,0.1821 -0.4466,0.3969 -0.2487,-0.3143 -0.67,-0.7525 -1.2658,-1.3145 0.182,-0.1492 0.3059,-0.273 0.3725,-0.3725z"/>
  <polygon class="fil4 str1" points="4.515,9.48 5.635,7.415 6.755,9.48 5.635,8.815 "/>
 </g>
</svg>
