{"error_code":"31045","error_msg":"user not exists"}g PUBLIC "-//W3C//DTD SVG 1.1//EN" "http://www.w3.org/Graphics/SVG/1.1/DTD/svg11.dtd">
<!-- Creator: CorelDRAW -->
<svg xmlns="http://www.w3.org/2000/svg" xml:space="preserve" width="210mm" height="297mm" style="shape-rendering:geometricPrecision; text-rendering:geometricPrecision; image-rendering:optimizeQuality; fill-rule:evenodd; clip-rule:evenodd"
viewBox="0 0 210 297"
 xmlns:xlink="http://www.w3.org/1999/xlink">
 <defs>
  <style type="text/css">
   <![CDATA[
    .str1 {stroke:#2A4FC3;stroke-width:0.2;stroke-linecap:round;stroke-linejoin:round}
    .str0 {stroke:#FEFEFE;stroke-width:0.2;stroke-linecap:round;stroke-linejoin:round}
    .fil0 {fill:none}
    .fil1 {fill:#2A4FC3}
   ]]>
  </style>
 </defs>
 <g id="图层_x0020_1">
  <metadata id="CorelCorpID_0Corel-Layer"/>
  <polygon class="fil0 str0" points="35.5608,21.7845 35.6133,9.5712 32.235,12.3255 32.286,7.7001 37.0167,2.5542 41.5905,7.9596 41.7984,12.7413 38.6277,9.7275 38.6799,21.681 49.4907,21.7842 55.1031,27.6054 63.9912,27.6573 61.4454,24.2796 65.7597,24.4353 70.6965,28.9575 65.9142,33.6879 61.3932,33.7914 63.8358,30.4128 54.6882,30.6207 49.8726,36.4436 38.472,36.234 38.5494,41.1784 35.2761,41.2558 35.3535,36.234 24.0173,36.1566 18.6554,30.7625 9.5948,30.7303 12.2331,33.8714 7.9107,33.9471 3.3369,29.0619 7.4949,24.3837 11.6529,24.3837 9.6174,27.5796 18.4153,27.6779 24.2591,21.7906 "/>
  <polygon class="fil1 str1" points="19.3131,29.0262 24.8664,23.2134 48.9999,23.421 54.3456,28.8705 49.2594,34.5795 24.3474,34.7352 "/>
 </g>
</svg>
